<?xml version="1.0" standalone="yes"?>
<svg width="1024" height="1024">
<path style="fill:#ffffff; stroke:none;" d="M0 0L0 89L1 89C2.96971 43.8218 50.559 1.12262 95 1L66 0L0 0z"/>
<path style="fill:#87c1e6; stroke:none;" d="M95 0L95 1L926 1L904 0L855 0L685 0L95 0z"/>
<path style="fill:#ffffff; stroke:none;" d="M926 0L926 1C971.601 1.00519 1020.94 41.7711 1023 89L1024 89L1024 0L926 0z"/>
<path style="fill:#94c9e9; stroke:none;" d="M86 1L86 2L89 2L86 1z"/>
<path style="fill:#1187cf; stroke:none;" d="M89 1.42822C77.4618 3.08051 66.4294 6.03217 56 11.2469C-15.5995 47.0466 0 133.688 0 200L0 761L0 891C0 924.518 -1.07954 957.447 19.4282 986C31.7792 1003.2 52.6337 1019.69 74 1023.54C92.2735 1026.82 113.431 1024 132 1024L251 1024L723 1024L875 1024C898.628 1024 925.759 1027.72 949 1023.54C985.365 1016.99 1012.87 983.411 1021.25 949C1025.3 932.392 1024 913.976 1024 897L1024 815L1024 259L1024 134C1024 100.287 1024.84 68.0958 1003.11 40C972.373 0.251343 929.455 1 884 1L770 1L313 1L164 1C139.663 1 113.083 -2.02039 89 1.42822z"/>
<path style="fill:#73b8e2; stroke:none;" d="M934 1L934 2L937 2L934 1z"/>
<path style="fill:#7fbfe5; stroke:none;" d="M80 2L80 3L83 3L80 2z"/>
<path style="fill:#85c1e6; stroke:none;" d="M76.6667 3.33331L77.3333 3.66669L76.6667 3.33331z"/>
<path style="fill:#86c0e5; stroke:none;" d="M72 4L72 5L75 5L72 4M949.667 4.33331L950.333 4.66669L949.667 4.33331z"/>
<path style="fill:#4ca6db; stroke:none;" d="M83 19L83 20L87 20L83 19z"/>
<path style="fill:#4aa3db; stroke:none;" d="M937 19L937 20L941 20L937 19z"/>
<path style="fill:#8ac5e7; stroke:none;" d="M3 74L3 77L4 77L3 74M1020 74L1020 77L1021 77L1020 74z"/>
<path style="fill:#4ea5db; stroke:none;" d="M1 83L1 87L2 87L1 83M1022 83L1022 87L1023 87L1022 83z"/>
<path style="fill:#4ba4dc; stroke:none;" d="M18 87L18 92L19 92L18 87M1005 87L1005 92L1006 92L1005 87z"/>
<path style="fill:#7cbee1; stroke:none;" d="M0 89L0 94L1 94L0 89M1023 89L1023 94L1024 94L1023 89z"/>
<path style="fill:#4ca3d9; stroke:none;" d="M17 94L17 931L18 931L18 337L18 166L18 117L17 94M1006 94L1006 931L1007 931L1007 337L1007 166L1007 117L1006 94z"/>
<path style="fill:#62b0e0; stroke:none;" d="M555 298L555 299L558 299L555 298z"/>
<path style="fill:#ffffff; stroke:none;" d="M427 497L455 497L466.397 498.603L468 515L468 560L468 739L547 739L547 497L604 497L604 435L547 435C547 410.403 541.736 370.395 573 361.927C577.753 360.64 583.116 360.755 588 361.089C597.691 361.753 606.659 364.557 616 367C618.979 352.569 623.052 338.296 626.627 324C627.537 320.359 631.269 312.127 628.933 308.702C624.875 302.752 606.647 301.468 600 300.197C568.265 294.126 527.465 297.589 502 319.301C477.841 339.9 470.173 369.57 468.09 400C467.442 409.453 471.196 424.15 467.397 432.852C465.652 436.848 460.521 435.833 457 436.17C450.511 436.79 433.569 435.246 428.603 439.179C425.407 441.711 427 450.377 427 454L427 497z"/>
<path style="fill:#9bccec; stroke:none;" d="M583 298L583 299L591 299L583 298z"/>
<path style="fill:#add5ee; stroke:none;" d="M548 299L548 300L552 300L548 299z"/>
<path style="fill:#62b0e0; stroke:none;" d="M596 299L596 300L599 300L596 299z"/>
<path style="fill:#7ebee4; stroke:none;" d="M543 300L543 301L546 301L543 300z"/>
<path style="fill:#93c8ea; stroke:none;" d="M601.667 300.333L602.333 300.667L601.667 300.333z"/>
<path style="fill:#8dc5e8; stroke:none;" d="M539.667 301.333L540.333 301.667L539.667 301.333z"/>
<path style="fill:#9dceec; stroke:none;" d="M535.667 302.333L536.333 302.667L535.667 302.333z"/>
<path style="fill:#86c2e7; stroke:none;" d="M614 303L614 304L617 304L614 303z"/>
<path style="fill:#83c2e5; stroke:none;" d="M618.667 304.333L619.333 304.667L618.667 304.333z"/>
<path style="fill:#409edb; stroke:none;" d="M627 320L626 328L627 328L627 320z"/>
<path style="fill:#43a0d9; stroke:none;" d="M623 336L622 344L623 344L623 336z"/>
<path style="fill:#9acdea; stroke:none;" d="M478.333 350.667L478.667 351.333L478.333 350.667z"/>
<path style="fill:#44a3db; stroke:none;" d="M619 352L617 364L618 364L619 352z"/>
<path style="fill:#82c0e5; stroke:none;" d="M475.333 357.667L475.667 358.333L475.333 357.667z"/>
<path style="fill:#90c6e8; stroke:none;" d="M474.333 360.667L474.667 361.333L474.333 360.667z"/>
<path style="fill:#61afdf; stroke:none;" d="M574 361L574 362L579 362L574 361z"/>
<path style="fill:#66b3e1; stroke:none;" d="M570.667 362.333L571.333 362.667L570.667 362.333z"/>
<path style="fill:#76bbe4; stroke:none;" d="M598 362L598 363L601 363L598 362z"/>
<path style="fill:#d2e8f6; stroke:none;" d="M473 363L470 381L471 381L473 363z"/>
<path style="fill:#91c7e9; stroke:none;" d="M606.667 364.333L607.333 364.667L606.667 364.333z"/>
<path style="fill:#95caea; stroke:none;" d="M616 364L616 367L617 367L616 364z"/>
<path style="fill:#abd5ee; stroke:none;" d="M613.667 366.333L614.333 366.667L613.667 366.333z"/>
<path style="fill:#5fb0df; stroke:none;" d="M469 379L469 382L470 382L469 379z"/>
<path style="fill:#99cceb; stroke:none;" d="M550.333 382.667L550.667 383.333L550.333 382.667z"/>
<path style="fill:#84c2e7; stroke:none;" d="M468 385L468 389L469 389L468 385z"/>
<path style="fill:#c8e3f4; stroke:none;" d="M468 389L467 435L468 435L468.015 403L468 389z"/>
<path style="fill:#4ea5db; stroke:none;" d="M547 395L547 435L604 435L604 434L548 434C548 422.828 551.311 405.274 547 395z"/>
<path style="fill:#5aacde; stroke:none;" d="M458 435L458 436L463 436L458 435z"/>
<path style="fill:#b2d8ef; stroke:none;" d="M463 435L463 436L467 436L463 435z"/>
<path style="fill:#48a3da; stroke:none;" d="M604 435L604 498L605 498L605 455L604 435z"/>
<path style="fill:#aad4ed; stroke:none;" d="M449 436L449 437L455 437L449 436z"/>
<path style="fill:#5cacdf; stroke:none;" d="M433 437L433 438L438 438L433 437z"/>
<path style="fill:#c5e2f2; stroke:none;" d="M438 437L438 438L444 438L438 437z"/>
<path style="fill:#9acdec; stroke:none;" d="M426 438L426 498L427 498L427 456L429 439L426 438z"/>
<path style="fill:#c4e1f3; stroke:none;" d="M427 497L427 498L467 498C456.488 493.589 438.434 497 427 497M547 497L547 498L604 498L586 497L547 497z"/>
<path style="fill:#c8e3f4; stroke:none;" d="M467 498L467 739L468 739L468 569L468 520L467 498z"/>
<path style="fill:#48a3da; stroke:none;" d="M547 498L547 739L548 739L548 569L548 520L547 498z"/>
<path style="fill:#44a1da; stroke:none;" d="M0 927L0 937L1 937L0 927M1023 927L1023 937L1024 937L1023 927z"/>
<path style="fill:#4ca6db; stroke:none;" d="M18 935L18 940L19 940L18 935M1005 935L1005 940L1006 940L1005 935z"/>
<path style="fill:#ffffff; stroke:none;" d="M0 937L0 1024L72 1024L72 1023C46.6896 1014.75 23.1208 996.32 11.4861 972C6.03133 960.598 4.73825 948.187 0 937M1023 937C1022.66 977.084 986.654 1011.4 951 1023L951 1024L1024 1024L1024 964L1023 937z"/>
<path style="fill:#badaf1; stroke:none;" d="M1 941L1 945L2 945L1 941M1022 941L1022 945L1023 945L1022 941z"/>
<path style="fill:#95caea; stroke:none;" d="M3 951L3 954L4 954L3 951M1020 951L1020 954L1021 954L1020 951z"/>
<path style="fill:#9bccec; stroke:none;" d="M4.33333 955.667L4.66667 956.333L4.33333 955.667M1019.33 955.667L1019.67 956.333L1019.33 955.667z"/>
<path style="fill:#83c1e8; stroke:none;" d="M72.6667 1023.33L73.3333 1023.67L72.6667 1023.33M949.667 1023.33L950.333 1023.67L949.667 1023.33z"/>
</svg>
