<?xml version="1.0" encoding="utf-8"?>
<svg viewBox="156.091 138.486 286.409 286.409" width="286.409" height="286.409" xmlns="http://www.w3.org/2000/svg">
  <path d="M 0 0 L -192.756 0 C -217.804 0 -238.11 20.306 -238.11 45.354 L -238.11 238.11 C -238.11 263.158 -217.804 283.464 -192.756 283.464 L 0 283.464 C 25.049 283.464 45.354 263.158 45.354 238.11 L 45.354 45.354 C 45.354 20.306 25.049 0 0 0" style="fill: rgb(249, 224, 0); fill-opacity: 1;" transform="matrix(0.999945, -0.010443, -0.010443, -0.999945, 397.148404, 422.407833)"/>
  <path d="M 303.33 186.238 C 247.38 186.238 202.03 222.299 202.03 266.774 C 202.03 294.344 219.453 318.675 246.022 333.193 L 238.699 372.454 C 238.335 374.407 240.493 375.841 242.152 374.748 L 285.666 346.084 C 285.666 346.084 297.303 347.309 303.33 347.309 C 359.275 347.309 404.629 311.252 404.629 266.774 C 404.629 222.299 359.275 186.238 303.33 186.238" style="fill: rgb(60, 30, 30); fill-opacity: 1;" transform="matrix(0.999945, -0.010443, 0.010443, 0.999945, -2.914624, 3.182978)"/>
</svg>