<?xml version="1.0" encoding="utf-8"?>
<svg viewBox="1072.338 90.53 126.602 126.608" width="126.602" height="126.608" xmlns="http://www.w3.org/2000/svg">
  <path d="M 0 0 C 0 -5.596 -4.538 -10.14 -10.141 -10.14 L -116.468 -10.14 C -122.063 -10.14 -126.602 -5.596 -126.602 0 L -126.602 106.328 C -126.602 111.93 -122.063 116.468 -116.468 116.468 L -10.141 116.468 C -4.538 116.468 0 111.93 0 106.328 Z" style="fill: rgb(255, 235, 61); fill-opacity: 1;" transform="matrix(1, 0, 0, -1, 1198.939514, 206.998016)"/>
  <path d="M 1134.281 100.54 C 1105.067 100.54 1081.401 119.232 1081.401 142.302 C 1081.401 157.142 1091.21 170.148 1105.937 177.569 L 1100.951 196.178 C 1100.763 196.76 1100.907 197.368 1101.33 197.782 C 1101.62 198.055 1101.999 198.21 1102.4 198.21 C 1102.731 198.21 1103.037 198.071 1103.333 197.85 L 1124.761 183.384 C 1127.87 183.827 1131.041 184.078 1134.281 184.078 C 1163.479 184.078 1187.175 165.398 1187.175 142.302 C 1187.175 119.232 1163.479 100.54 1134.281 100.54" style="fill: rgb(54, 32, 35); fill-opacity: 1;"/>
</svg>