<?xml version="1.0" encoding="utf-8"?>
<svg viewBox="706.8 160.23 114.367 114.371" width="114.367" height="114.371" xmlns="http://www.w3.org/2000/svg">
  <path d="M 0 0 C 0.044 -19.075 0.015 -38.153 0.015 -57.229 C 7.159 -57.27 14.312 -57.258 21.453 -57.235 C 21.561 -47.777 21.321 -38.311 21.578 -28.853 C 23.924 -32.126 26.062 -35.546 28.454 -38.786 C 32.454 -44.997 36.981 -50.867 40.826 -57.174 C 48.021 -57.363 55.213 -57.167 62.41 -57.284 C 62.486 -56.388 62.564 -55.496 62.564 -54.598 C 62.459 -36.392 62.649 -18.183 62.466 0.021 C 55.348 0.077 48.238 0.006 41.126 0.05 C 41.071 -9.46 41.182 -18.976 41.065 -28.478 C 34.455 -19.075 28.209 -9.393 21.444 -0.108 C 14.314 0.216 7.145 -0.011 0 0 M -23.448 28.422 C -21.648 28.656 -19.822 28.49 -18.011 28.527 C 16.208 28.522 50.429 28.51 84.646 28.534 C 85.694 28.588 86.827 28.399 87.545 27.562 C 88.924 26.191 88.432 24.116 88.521 22.381 C 88.484 -12.578 88.533 -47.532 88.498 -82.483 C 88.565 -84.481 86.585 -86.085 84.639 -85.785 C 48.936 -85.785 13.227 -85.802 -22.482 -85.779 C -24.268 -85.875 -25.945 -84.304 -25.822 -82.488 C -25.829 -46.586 -25.822 -10.686 -25.822 25.208 C -25.937 26.687 -24.86 28.046 -23.448 28.422" style="fill: rgb(77, 187, 74); fill-opacity: 1;" transform="matrix(1, 0, 0, -1, 732.629944, 188.779694)"/>
</svg>